{
    "asset" : {
        "generator" : "Khronos glTF Blender I/O v3.3.32",
        "version" : "2.0"
    },
    "extensionsUsed" : [
        "KHR_materials_specular",
        "KHR_materials_ior"
    ],
    "scene" : 0,
    "scenes" : [
        {
            "name" : "Scene",
            "nodes" : [
                0,
                1,
                2,
                3,
                4,
                5,
                6
            ]
        }
    ],
    "nodes" : [
        {
            "mesh" : 0,
            "name" : "Cylinder",
            "rotation" : [
                -0.5336604118347168,
                0.4639037847518921,
                -0.5336601138114929,
                0.4639037251472473
            ],
            "translation" : [
                0,
                1.6246676445007324,
                -0.018544457852840424
            ]
        },
        {
            "mesh" : 1,
            "name" : "Text",
            "rotation" : [
                0.6560590267181396,
                0,
                0,
                0.7547096014022827
            ],
            "scale" : [
                1.0860977172851562,
                1.0860977172851562,
                1.0860977172851562
            ],
            "translation" : [
                -0.5717787146568298,
                1.3670597076416016,
                0.10854446142911911
            ]
        },
        {
            "mesh" : 2,
            "name" : "Cylinder.001",
            "rotation" : [
                0,
                -0.7071065902709961,
                0,
                0.7071069478988647
            ],
            "scale" : [
                1,
                0.6000000238418579,
                1
            ],
            "translation" : [
                0.0019962191581726074,
                0.07127103209495544,
                0
            ]
        },
        {
            "mesh" : 3,
            "name" : "Cylinder.004",
            "scale" : [
                0.10000002384185791,
                0.030000008642673492,
                0.10000002384185791
            ],
            "translation" : [
                0.800000011920929,
                0.2032710611820221,
                0
            ]
        },
        {
            "mesh" : 4,
            "name" : "Cylinder.002",
            "scale" : [
                0.10000002384185791,
                0.030000008642673492,
                0.10000002384185791
            ],
            "translation" : [
                -0.800000011920929,
                0.2032710611820221,
                0
            ]
        },
        {
            "mesh" : 5,
            "name" : "Cylinder.003",
            "rotation" : [
                0,
                -0.7071068286895752,
                0,
                0.7071068286895752
            ],
            "scale" : [
                0.10000002384185791,
                0.030000008642673492,
                0.10000002384185791
            ],
            "translation" : [
                0,
                0.2032710611820221,
                0.800000011920929
            ]
        },
        {
            "mesh" : 6,
            "name" : "Cylinder.005",
            "rotation" : [
                0,
                -0.7071068286895752,
                0,
                0.7071068286895752
            ],
            "scale" : [
                0.10000002384185791,
                0.030000008642673492,
                0.10000002384185791
            ],
            "translation" : [
                0,
                0.2032710611820221,
                -0.800000011920929
            ]
        }
    ],
    "materials" : [
        {
            "doubleSided" : true,
            "extensions" : {
                "KHR_materials_specular" : {
                    "specularColorFactor" : [
                        1.42281462520241,
                        1.42281462520241,
                        1.42281462520241
                    ]
                },
                "KHR_materials_ior" : {
                    "ior" : 1.4500000476837158
                }
            },
            "name" : "GOLD",
            "pbrMetallicRoughness" : {
                "baseColorFactor" : [
                    1,
                    0.452708899974823,
                    0.016934188082814217,
                    1
                ],
                "metallicFactor" : 0.9200000166893005,
                "roughnessFactor" : 0.20000000298023224
            }
        },
        {
            "doubleSided" : true,
            "extensions" : {
                "KHR_materials_specular" : {
                    "specularColorFactor" : [
                        1.1382516294899638,
                        1.1382516294899638,
                        1.1382516294899638
                    ]
                },
                "KHR_materials_ior" : {
                    "ior" : 1.4500000476837158
                }
            },
            "name" : "Material.004",
            "pbrMetallicRoughness" : {
                "baseColorFactor" : [
                    0.7991030812263489,
                    0.3345757722854614,
                    0.031691934913396835,
                    0.25
                ],
                "metallicFactor" : 0.800000011920929,
                "roughnessFactor" : 0.1599999964237213
            }
        },
        {
            "doubleSided" : true,
            "extensions" : {
                "KHR_materials_specular" : {
                    "specularColorFactor" : [
                        1.42281462520241,
                        1.42281462520241,
                        1.42281462520241
                    ]
                },
                "KHR_materials_ior" : {
                    "ior" : 1.4500000476837158
                }
            },
            "name" : "Material.006",
            "pbrMetallicRoughness" : {
                "baseColorFactor" : [
                    0.7179545760154724,
                    0.6788041591644287,
                    0.8549789190292358,
                    1
                ],
                "metallicFactor" : 0.8999999761581421,
                "roughnessFactor" : 0.10000000149011612
            }
        }
    ],
    "meshes" : [
        {
            "name" : "Cylinder.001",
            "primitives" : [
                {
                    "attributes" : {
                        "POSITION" : 0,
                        "NORMAL" : 1,
                        "TEXCOORD_0" : 2
                    },
                    "indices" : 3,
                    "material" : 0
                },
                {
                    "attributes" : {
                        "POSITION" : 4,
                        "NORMAL" : 5,
                        "TEXCOORD_0" : 6
                    },
                    "indices" : 7,
                    "material" : 1
                }
            ]
        },
        {
            "name" : "Text",
            "primitives" : [
                {
                    "attributes" : {
                        "POSITION" : 8,
                        "NORMAL" : 9,
                        "TEXCOORD_0" : 10
                    },
                    "indices" : 11,
                    "material" : 0
                }
            ]
        },
        {
            "name" : "Cylinder.002",
            "primitives" : [
                {
                    "attributes" : {
                        "POSITION" : 12,
                        "NORMAL" : 13,
                        "TEXCOORD_0" : 14
                    },
                    "indices" : 15,
                    "material" : 0
                }
            ]
        },
        {
            "name" : "Cylinder.005",
            "primitives" : [
                {
                    "attributes" : {
                        "POSITION" : 16,
                        "NORMAL" : 17,
                        "TEXCOORD_0" : 18
                    },
                    "indices" : 19,
                    "material" : 2
                }
            ]
        },
        {
            "name" : "Cylinder.008",
            "primitives" : [
                {
                    "attributes" : {
                        "POSITION" : 20,
                        "NORMAL" : 21,
                        "TEXCOORD_0" : 22
                    },
                    "indices" : 19,
                    "material" : 2
                }
            ]
        },
        {
            "name" : "Cylinder.009",
            "primitives" : [
                {
                    "attributes" : {
                        "POSITION" : 23,
                        "NORMAL" : 24,
                        "TEXCOORD_0" : 25
                    },
                    "indices" : 19,
                    "material" : 2
                }
            ]
        },
        {
            "name" : "Cylinder.010",
            "primitives" : [
                {
                    "attributes" : {
                        "POSITION" : 26,
                        "NORMAL" : 27,
                        "TEXCOORD_0" : 28
                    },
                    "indices" : 19,
                    "material" : 2
                }
            ]
        }
    ],
    "accessors" : [
        {
            "bufferView" : 0,
            "componentType" : 5126,
            "count" : 582,
            "max" : [
                1,
                0.17799746990203857,
                1.0000001192092896
            ],
            "min" : [
                -1,
                -0.12043383717536926,
                -1.0000001192092896
            ],
            "type" : "VEC3"
        },
        {
            "bufferView" : 1,
            "componentType" : 5126,
            "count" : 582,
            "type" : "VEC3"
        },
        {
            "bufferView" : 2,
            "componentType" : 5126,
            "count" : 582,
            "type" : "VEC2"
        },
        {
            "bufferView" : 3,
            "componentType" : 5123,
            "count" : 2970,
            "type" : "SCALAR"
        },
        {
            "bufferView" : 4,
            "componentType" : 5126,
            "count" : 160,
            "max" : [
                0.7497104406356812,
                -0.05787381902337074,
                0.7497106194496155
            ],
            "min" : [
                -0.7497104406356812,
                -0.06528973579406738,
                -0.7497102618217468
            ],
            "type" : "VEC3"
        },
        {
            "bufferView" : 5,
            "componentType" : 5126,
            "count" : 160,
            "type" : "VEC3"
        },
        {
            "bufferView" : 6,
            "componentType" : 5126,
            "count" : 160,
            "type" : "VEC2"
        },
        {
            "bufferView" : 7,
            "componentType" : 5123,
            "count" : 858,
            "type" : "SCALAR"
        },
        {
            "bufferView" : 8,
            "componentType" : 5126,
            "count" : 6058,
            "max" : [
                1.025865912437439,
                0.05999999865889549,
                0.23401765525341034
            ],
            "min" : [
                0.029964013025164604,
                -0.05999999865889549,
                -0.7530461549758911
            ],
            "type" : "VEC3"
        },
        {
            "bufferView" : 9,
            "componentType" : 5126,
            "count" : 6058,
            "type" : "VEC3"
        },
        {
            "bufferView" : 10,
            "componentType" : 5126,
            "count" : 6058,
            "type" : "VEC2"
        },
        {
            "bufferView" : 11,
            "componentType" : 5123,
            "count" : 29280,
            "type" : "SCALAR"
        },
        {
            "bufferView" : 12,
            "componentType" : 5126,
            "count" : 710,
            "max" : [
                1,
                0.17799746990203857,
                1.0000001192092896
            ],
            "min" : [
                -1,
                -0.12043383717536926,
                -1.0000001192092896
            ],
            "type" : "VEC3"
        },
        {
            "bufferView" : 13,
            "componentType" : 5126,
            "count" : 710,
            "type" : "VEC3"
        },
        {
            "bufferView" : 14,
            "componentType" : 5126,
            "count" : 710,
            "type" : "VEC2"
        },
        {
            "bufferView" : 15,
            "componentType" : 5123,
            "count" : 3828,
            "type" : "SCALAR"
        },
        {
            "bufferView" : 16,
            "componentType" : 5126,
            "count" : 586,
            "max" : [
                0.993154764175415,
                1,
                0.993154764175415
            ],
            "min" : [
                -0.993154764175415,
                -1,
                -0.993154764175415
            ],
            "type" : "VEC3"
        },
        {
            "bufferView" : 17,
            "componentType" : 5126,
            "count" : 586,
            "type" : "VEC3"
        },
        {
            "bufferView" : 18,
            "componentType" : 5126,
            "count" : 586,
            "type" : "VEC2"
        },
        {
            "bufferView" : 19,
            "componentType" : 5123,
            "count" : 1524,
            "type" : "SCALAR"
        },
        {
            "bufferView" : 20,
            "componentType" : 5126,
            "count" : 586,
            "max" : [
                0.993154764175415,
                1,
                0.993154764175415
            ],
            "min" : [
                -0.993154764175415,
                -1,
                -0.993154764175415
            ],
            "type" : "VEC3"
        },
        {
            "bufferView" : 21,
            "componentType" : 5126,
            "count" : 586,
            "type" : "VEC3"
        },
        {
            "bufferView" : 22,
            "componentType" : 5126,
            "count" : 586,
            "type" : "VEC2"
        },
        {
            "bufferView" : 23,
            "componentType" : 5126,
            "count" : 586,
            "max" : [
                0.993154764175415,
                1,
                0.993154764175415
            ],
            "min" : [
                -0.993154764175415,
                -1,
                -0.993154764175415
            ],
            "type" : "VEC3"
        },
        {
            "bufferView" : 24,
            "componentType" : 5126,
            "count" : 586,
            "type" : "VEC3"
        },
        {
            "bufferView" : 25,
            "componentType" : 5126,
            "count" : 586,
            "type" : "VEC2"
        },
        {
            "bufferView" : 26,
            "componentType" : 5126,
            "count" : 586,
            "max" : [
                0.993154764175415,
                1,
                0.993154764175415
            ],
            "min" : [
                -0.993154764175415,
                -1,
                -0.993154764175415
            ],
            "type" : "VEC3"
        },
        {
            "bufferView" : 27,
            "componentType" : 5126,
            "count" : 586,
            "type" : "VEC3"
        },
        {
            "bufferView" : 28,
            "componentType" : 5126,
            "count" : 586,
            "type" : "VEC2"
        }
    ],
    "bufferViews" : [
        {
            "buffer" : 0,
            "byteLength" : 6984,
            "byteOffset" : 0,
            "target" : 34962
        },
        {
            "buffer" : 0,
            "byteLength" : 6984,
            "byteOffset" : 6984,
            "target" : 34962
        },
        {
            "buffer" : 0,
            "byteLength" : 4656,
            "byteOffset" : 13968,
            "target" : 34962
        },
        {
            "buffer" : 0,
            "byteLength" : 5940,
            "byteOffset" : 18624,
            "target" : 34963
        },
        {
            "buffer" : 0,
            "byteLength" : 1920,
            "byteOffset" : 24564,
            "target" : 34962
        },
        {
            "buffer" : 0,
            "byteLength" : 1920,
            "byteOffset" : 26484,
            "target" : 34962
        },
        {
            "buffer" : 0,
            "byteLength" : 1280,
            "byteOffset" : 28404,
            "target" : 34962
        },
        {
            "buffer" : 0,
            "byteLength" : 1716,
            "byteOffset" : 29684,
            "target" : 34963
        },
        {
            "buffer" : 0,
            "byteLength" : 72696,
            "byteOffset" : 31400,
            "target" : 34962
        },
        {
            "buffer" : 0,
            "byteLength" : 72696,
            "byteOffset" : 104096,
            "target" : 34962
        },
        {
            "buffer" : 0,
            "byteLength" : 48464,
            "byteOffset" : 176792,
            "target" : 34962
        },
        {
            "buffer" : 0,
            "byteLength" : 58560,
            "byteOffset" : 225256,
            "target" : 34963
        },
        {
            "buffer" : 0,
            "byteLength" : 8520,
            "byteOffset" : 283816,
            "target" : 34962
        },
        {
            "buffer" : 0,
            "byteLength" : 8520,
            "byteOffset" : 292336,
            "target" : 34962
        },
        {
            "buffer" : 0,
            "byteLength" : 5680,
            "byteOffset" : 300856,
            "target" : 34962
        },
        {
            "buffer" : 0,
            "byteLength" : 7656,
            "byteOffset" : 306536,
            "target" : 34963
        },
        {
            "buffer" : 0,
            "byteLength" : 7032,
            "byteOffset" : 314192,
            "target" : 34962
        },
        {
            "buffer" : 0,
            "byteLength" : 7032,
            "byteOffset" : 321224,
            "target" : 34962
        },
        {
            "buffer" : 0,
            "byteLength" : 4688,
            "byteOffset" : 328256,
            "target" : 34962
        },
        {
            "buffer" : 0,
            "byteLength" : 3048,
            "byteOffset" : 332944,
            "target" : 34963
        },
        {
            "buffer" : 0,
            "byteLength" : 7032,
            "byteOffset" : 335992,
            "target" : 34962
        },
        {
            "buffer" : 0,
            "byteLength" : 7032,
            "byteOffset" : 343024,
            "target" : 34962
        },
        {
            "buffer" : 0,
            "byteLength" : 4688,
            "byteOffset" : 350056,
            "target" : 34962
        },
        {
            "buffer" : 0,
            "byteLength" : 7032,
            "byteOffset" : 354744,
            "target" : 34962
        },
        {
            "buffer" : 0,
            "byteLength" : 7032,
            "byteOffset" : 361776,
            "target" : 34962
        },
        {
            "buffer" : 0,
            "byteLength" : 4688,
            "byteOffset" : 368808,
            "target" : 34962
        },
        {
            "buffer" : 0,
            "byteLength" : 7032,
            "byteOffset" : 373496,
            "target" : 34962
        },
        {
            "buffer" : 0,
            "byteLength" : 7032,
            "byteOffset" : 380528,
            "target" : 34962
        },
        {
            "buffer" : 0,
            "byteLength" : 4688,
            "byteOffset" : 387560,
            "target" : 34962
        }
    ],
    "buffers" : [
        {
            "byteLength" : 392248,
            "uri" : "data:application/octet-stream;base64,"
        }
    ]
}
